# xmcd
#
# Track frame offsets:
#	150
#	14172
#	26963
#	39072
#	54242
#	68297
#	78471
#	85771
#	99129
#	111799
#	121682
#	133209
#	147335
#	159403
#	173702
#	187543
#	199066
#	208143
#	221956
#	234104
#	246159
#	256630
#	266018
#	276221
#	286951
#	296797
#	312814
#	323503
#
# Disc length: 4509 seconds
#
# Revision: 1
# Processed by: cddbd v1.5.2PL0 Copyright (c) Steve Scherf et al.
# Submitted via: audiograbber 1.83.01
#
DISCID=82119b1c
DTITLE=Various Artist - Chicago HIt Factory - The Vee Jay Story - 1953-1966  (
DTITLE=CD5)
DYEAR=2014
DGENRE=Oldies
TTITLE0=Floyd Jones - Ain't Times Hard
TTITLE1=L.C. McKinley - She's Five Feet Three
TTITLE2=Billy Boy Arnold - I Wish You Would
TTITLE3=Morris Pejoe - Hurt My Feelings
TTITLE4=Five Echoes - Fool's Prayer
TTITLE5=Billy Boy Arnold - I Ain't Got You
TTITLE6=Billy 'The Kid' Emerson - If You Won't Stay Home
TTITLE7=Eddie Taylor - Big Town Playboy
TTITLE8=Jimmy Reed - Can't Stand To See You Go
TTITLE9=John Lee Hooker - Dimples
TTITLE10=Eddie Taylor - You'll Always Have A Home
TTITLE11=Pee Wee Crayton - The Telephone Is Ringing
TTITLE12=Billy 'The Kid' Emerson - Every Woman I Know
TTITLE13=Jimmy Reed - Honey, Where You Going?
TTITLE14=Elmore James - The 12 Year Old Boy
TTITLE15=Pee Wee Crayton - I Found My Peace Of Mind
TTITLE16=Larry Birdsong - If You Don't Want Me No More
TTITLE17=Elmore James - It Hurts Me Too
TTITLE18=El Cincos - Oh, Baby, You Have To Go
TTITLE19=Memphis Slim - Stroll On Little Girl
TTITLE20=Jimmy Reed - Take Out Some Insurance
TTITLE21=Memphis Slim - Rockin' The House (Beer Drinkin' Woman)
TTITLE22=Jimmy Reed - Found Love
TTITLE23=John Lee Hooker - No Shoes
TTITLE24=J.B. Lenoir - Oh Baby
TTITLE25=John Lee Hooker - My First Wife Left Me
TTITLE26=Jimmy Reed - Aw Shucks, Hush Your Mouth
TTITLE27=Jimmy Reed - Baby, What's Wrong
EXTD=
EXTT0=
EXTT1=
EXTT2=
EXTT3=
EXTT4=
EXTT5=
EXTT6=
EXTT7=
EXTT8=
EXTT9=
EXTT10=
EXTT11=
EXTT12=
EXTT13=
EXTT14=
EXTT15=
EXTT16=
EXTT17=
EXTT18=
EXTT19=
EXTT20=
EXTT21=
EXTT22=
EXTT23=
EXTT24=
EXTT25=
EXTT26=
EXTT27=
PLAYORDER=
